<svg id="Layer_1" data-name="Layer 1" xmlns="http://www.w3.org/2000/svg" viewBox="0 0 860.38 388.68"><defs><style>.cls-1{fill:#b4d6d1;}.cls-2{fill:#4fb1a0;}</style></defs><title>UMLogoGreenNoText</title><path class="cls-1" d="M25.24,29.46V362.24c0,9.65,15,9.67,15,0V29.46c0-9.65-15-9.67-15,0h0Z"/><path class="cls-1" d="M366.63,30.79V362.24c0,9.65,15,9.67,15,0V30.79c0-9.65-15-9.67-15,0h0Z"/><path class="cls-2" d="M56,32.78c16.74,53.57,51.86,105.84,106.48,125.83a120.19,120.19,0,0,0,73.4,2.79c25-7,47.39-21.94,65.25-40.63,23.59-24.68,39.75-55.58,49.88-88,2.89-9.24-11.59-13.19-14.46-4-15,48.08-46.57,97.18-95.87,115.3a106.24,106.24,0,0,1-66,2.73c-22.66-6.46-42.52-20.12-58.63-37.09C94.54,87,79.8,58.53,70.51,28.8c-2.87-9.18-17.35-5.26-14.46,4h0Z"/><path class="cls-2" d="M412.53,24h33.59a38.85,38.85,0,0,1,28.51,11.8,38.85,38.85,0,0,1,11.8,28.51A38.78,38.78,0,0,1,474.68,92.8a39.63,39.63,0,0,1-11.84,8.31L492.07,148a6.39,6.39,0,0,1,1.09,3.7,6.74,6.74,0,0,1-6.72,6.72,6.8,6.8,0,0,1-5.88-3.44l-31.49-50.39q-1.43.08-2.94,0.08H419.25v47a6.72,6.72,0,0,1-13.44,0V30.73A6.74,6.74,0,0,1,412.53,24Zm6.72,13.44V91.2h26.88A26.81,26.81,0,0,0,473,64.33a26.81,26.81,0,0,0-26.87-26.87H419.25Z"/><path class="cls-2" d="M513.31,24h26.88A32.38,32.38,0,0,1,564,33.84a32.38,32.38,0,0,1,9.83,23.77A32.38,32.38,0,0,1,564,81.38a42,42,0,0,1,11.51,8.15,39.06,39.06,0,0,1,11.76,28.55,40.29,40.29,0,0,1-40.31,40.31H513.31a6.74,6.74,0,0,1-6.72-6.72V30.73A6.74,6.74,0,0,1,513.31,24ZM520,37.45V77.77h20.16a20.22,20.22,0,0,0,20.16-20.16,20.22,20.22,0,0,0-20.16-20.16H520Zm0,53.75V145h26.88a26.81,26.81,0,0,0,26.88-26.87A26.81,26.81,0,0,0,546.91,91.2H520Z"/><path class="cls-2" d="M630.3,111.36l-16.71,42.92a7.73,7.73,0,0,1-1.43,2.18,6.68,6.68,0,0,1-4.79,1.93,6.74,6.74,0,0,1-6.72-6.72,6.67,6.67,0,0,1,.59-2.86l46.7-120.1a7.07,7.07,0,0,1,1.76-2.77,6.4,6.4,0,0,1,4.7-1.93,6.69,6.69,0,0,1,4.79,1.93,7.54,7.54,0,0,1,1.68,2.77l46.7,120.1a6.7,6.7,0,0,1,.59,2.86,6.74,6.74,0,0,1-6.72,6.72,6.4,6.4,0,0,1-4.7-1.93,7,7,0,0,1-1.51-2.18l-16.71-42.92H630.3Zm43-13.44L654.41,49.3l-18.9,48.63h37.79Z"/><path class="cls-2" d="M735,151.67a6.72,6.72,0,0,1-13.44,0V30.73A6.74,6.74,0,0,1,728.32,24a6.77,6.77,0,0,1,5.21,2.44L815.66,132.1V30.73a6.72,6.72,0,0,1,13.44,0V151.67a6.74,6.74,0,0,1-6.72,6.72,6.74,6.74,0,0,1-5-2.18L735,50.39V151.67Z"/><path class="cls-1" d="M412.53,235.09h80.63a6.72,6.72,0,0,1,0,13.44H419.25v47H473A6.72,6.72,0,0,1,473,309H419.25v47h73.91a6.72,6.72,0,0,1,0,13.44H412.53a6.74,6.74,0,0,1-6.72-6.72V241.81A6.74,6.74,0,0,1,412.53,235.09Z"/><path class="cls-1" d="M520,235.09h33.59a40.32,40.32,0,0,1,28.55,68.78,39.61,39.61,0,0,1-11.84,8.31l29.23,46.86a6.39,6.39,0,0,1,1.09,3.7,6.74,6.74,0,0,1-6.72,6.72,6.8,6.8,0,0,1-5.88-3.44l-31.49-50.39q-1.43.08-2.94,0.08H526.75v47a6.72,6.72,0,0,1-13.44,0V241.81A6.74,6.74,0,0,1,520,235.09Zm6.72,13.44v53.75h26.88a26.88,26.88,0,1,0,0-53.75H526.75Z"/><path class="cls-1" d="M718.74,343.1a6.74,6.74,0,0,1,6.72,6.72,6.4,6.4,0,0,1-1.93,4.7,66,66,0,0,1-42.24,14.95q-27.8,0-47.49-19.69T614.1,302.28q0-27.8,19.69-47.49t47.49-19.69A65.52,65.52,0,0,1,724,250.46a6.69,6.69,0,0,1,1.93,4.79,6.74,6.74,0,0,1-6.72,6.72,6.54,6.54,0,0,1-4.79-2,53.78,53.78,0,0,0-86.92,42.33,53.78,53.78,0,0,0,87.34,42A6.57,6.57,0,0,1,718.74,343.1Z"/><path class="cls-1" d="M738.39,241.81a6.72,6.72,0,0,1,13.44,0v53.75H819V241.81a6.72,6.72,0,0,1,13.44,0V362.75a6.72,6.72,0,0,1-13.44,0V309H751.83v53.75a6.72,6.72,0,0,1-13.44,0V241.81Z"/></svg>